<svg width="356" height="295" viewBox="0 0 356 295" fill="none" xmlns="http://www.w3.org/2000/svg">
<path opacity="0.3" d="M106.635 140.218C84.9798 140.128 64.1721 148.629 48.774 163.859C33.3759 179.088 24.644 199.802 24.4917 221.46C24.4761 232.144 26.5938 242.723 30.7208 252.577C34.8478 262.431 40.9007 271.361 48.5246 278.844C51.7535 282.018 56.0992 283.796 60.6259 283.796C65.1526 283.796 69.4983 282.018 72.7271 278.844C74.3159 277.281 75.5777 275.416 76.439 273.36C77.3003 271.304 77.7437 269.097 77.7437 266.867C77.7437 264.638 77.3003 262.43 76.439 260.374C75.5777 258.318 74.3159 256.453 72.7271 254.89C68.2845 250.519 64.7562 245.308 62.3477 239.56C59.9392 233.812 58.699 227.642 58.699 221.41C58.699 215.177 59.9392 209.007 62.3477 203.259C64.7562 197.511 68.2845 192.3 72.7271 187.929C81.7576 179.043 93.9182 174.063 106.586 174.063C119.255 174.063 131.415 179.043 140.446 187.929C144.888 192.3 148.417 197.511 150.825 203.259C153.234 209.007 154.474 215.177 154.474 221.41C154.474 227.642 153.234 233.812 150.825 239.56C148.417 245.308 144.888 250.519 140.446 254.89C138.857 256.453 137.595 258.317 136.734 260.373C135.872 262.429 135.429 264.636 135.429 266.865C135.429 269.094 135.872 271.3 136.734 273.356C137.595 275.412 138.857 277.276 140.446 278.84C143.674 282.013 148.02 283.791 152.547 283.791C157.074 283.791 161.419 282.013 164.648 278.84C172.291 271.366 178.363 262.44 182.509 252.587C186.654 242.733 188.788 232.151 188.787 221.46C188.635 199.8 179.902 179.085 164.502 163.855C149.101 148.626 128.292 140.125 106.635 140.218Z" fill="url(#paint0_linear_4298_1488)"/>
<g opacity="0.4" filter="url(#filter0_f_4298_1488)">
<rect width="275.947" height="183.657" rx="11.4507" transform="matrix(1 0 0 -1 38.3351 256.043)" fill="url(#paint1_linear_4298_1488)"/>
</g>
<g clip-path="url(#clip0_4298_1488)">
<rect x="47.5641" y="52.0824" width="293.901" height="187.904" rx="5.78167" fill="url(#paint2_linear_4298_1488)"/>
<path opacity="0.4" d="M106.581 140.254C84.9256 140.163 64.1179 148.665 48.7198 163.894C33.3217 179.123 24.5899 199.837 24.4376 221.496C24.4219 232.179 26.5397 242.758 30.6666 252.612C34.7936 262.466 40.8465 271.397 48.4705 278.88C51.6993 282.053 56.045 283.831 60.5717 283.831C65.0984 283.831 69.4441 282.053 72.673 278.88C74.2618 277.316 75.5236 275.452 76.3849 273.395C77.2462 271.339 77.6895 269.132 77.6895 266.902C77.6895 264.673 77.2462 262.466 76.3849 260.409C75.5236 258.353 74.2618 256.489 72.673 254.925C68.2304 250.555 64.702 245.343 62.2935 239.595C59.8851 233.847 58.6449 227.677 58.6449 221.445C58.6449 215.212 59.8851 209.042 62.2935 203.294C64.702 197.546 68.2304 192.335 72.673 187.965C81.7034 179.079 93.864 174.099 106.532 174.099C119.2 174.099 131.361 179.079 140.391 187.965C144.834 192.335 148.362 197.546 150.771 203.294C153.179 209.042 154.42 215.212 154.42 221.445C154.42 227.677 153.179 233.847 150.771 239.595C148.362 245.343 144.834 250.555 140.391 254.925C138.803 256.488 137.541 258.352 136.68 260.408C135.818 262.464 135.375 264.671 135.375 266.9C135.375 269.129 135.818 271.336 136.68 273.392C137.541 275.448 138.803 277.312 140.391 278.875C143.62 282.048 147.966 283.826 152.493 283.826C157.019 283.826 161.365 282.048 164.594 278.875C172.237 271.401 178.309 262.476 182.455 252.622C186.6 242.769 188.734 232.186 188.733 221.496C188.581 199.836 179.848 179.12 164.447 163.89C149.047 148.661 128.237 140.161 106.581 140.254Z" fill="url(#paint3_linear_4298_1488)"/>
<path d="M319.77 0.436034C301.282 0.351492 283.514 7.5958 270.366 20.5797C257.217 33.5637 249.762 51.227 249.635 69.6948C249.635 88.2752 257.024 106.095 270.177 119.233C283.33 132.371 301.169 139.752 319.77 139.752C338.371 139.752 356.211 132.371 369.364 119.233C382.517 106.095 389.906 88.2752 389.906 69.6948C389.779 51.227 382.323 33.5637 369.175 20.5797C356.026 7.5958 338.259 0.351492 319.77 0.436034ZM319.77 106.274C312.545 106.192 305.505 103.977 299.537 99.9072C293.569 95.8376 288.939 90.0954 286.231 83.4035C283.523 76.7116 282.857 69.369 284.317 62.2998C285.777 55.2307 289.299 48.751 294.437 43.6763C299.576 38.6017 306.102 35.1588 313.196 33.7811C320.289 32.4034 327.632 33.1524 334.3 35.9339C340.968 38.7153 346.663 43.4049 350.669 49.4124C354.674 55.4199 356.812 62.4768 356.811 69.6948C356.784 74.5261 355.804 79.3046 353.927 83.7576C352.051 88.2106 349.315 92.2508 345.875 95.6475C342.436 99.0442 338.36 101.731 333.881 103.554C329.402 105.378 324.607 106.302 319.77 106.274Z" fill="url(#paint4_linear_4298_1488)"/>
<g opacity="0.6">
<path d="M127.553 148.153C128.538 147.168 129.091 145.832 129.091 144.439C129.091 143.046 128.538 141.711 127.553 140.726" stroke="white" stroke-width="2.40903" stroke-linecap="round" stroke-linejoin="round"/>
<path d="M131.594 150.617C132.993 148.861 133.754 146.683 133.754 144.438C133.754 142.193 132.991 140.015 131.592 138.259" stroke="white" stroke-width="2.40903" stroke-linecap="round" stroke-linejoin="round"/>
<path d="M135.156 153.047C137.03 150.584 138.049 147.576 138.058 144.481C138.067 141.385 137.066 138.371 135.206 135.897" stroke="white" stroke-width="2.40903" stroke-linecap="round" stroke-linejoin="round"/>
<path d="M139.134 133.367C141.539 136.69 142.797 140.705 142.717 144.806C142.638 148.907 141.225 152.87 138.692 156.097" stroke="white" stroke-width="2.40903" stroke-linecap="round" stroke-linejoin="round"/>
</g>
<rect x="79.1224" y="128.955" width="40.833" height="29.6244" rx="6.02257" fill="url(#paint5_linear_4298_1488)" stroke="url(#paint6_linear_4298_1488)" stroke-width="0.481806"/>
<mask id="mask0_4298_1488" style="mask-type:alpha" maskUnits="userSpaceOnUse" x="79" y="129" width="41" height="30">
<rect x="79.6042" y="129.436" width="39.8694" height="28.6607" rx="5.54077" fill="#DCD59E" stroke="black" stroke-width="0.481806"/>
</mask>
<g mask="url(#mask0_4298_1488)">
<path opacity="0.5" fill-rule="evenodd" clip-rule="evenodd" d="M100.489 130.15C100.136 129.432 99.1121 129.432 98.7593 130.15L95.1335 137.535C95.1335 137.535 96.9298 142.96 95.1335 149.147L98.7427 157.326C99.0808 158.093 100.168 158.093 100.506 157.326L104.115 149.147C104.115 149.147 102.319 145.784 104.115 137.535L100.489 130.15Z" stroke="#BFB985" stroke-width="0.626347" stroke-linejoin="bevel"/>
<path opacity="0.5" d="M78.9665 137.495H95.0196" stroke="#BFB985" stroke-width="0.626347" stroke-linejoin="bevel"/>
<path opacity="0.5" d="M103.734 137.495H120.245" stroke="#BFB985" stroke-width="0.626347" stroke-linejoin="bevel"/>
<path opacity="0.5" d="M78.9665 149.058H95.0196" stroke="#BFB985" stroke-width="0.626347" stroke-linejoin="bevel"/>
<path opacity="0.5" d="M103.734 149.058H120.245" stroke="#BFB985" stroke-width="0.626347" stroke-linejoin="bevel"/>
</g>
<path fill-rule="evenodd" clip-rule="evenodd" d="M106.687 74.7408C106.909 74.5124 107.084 74.242 107.201 73.9454C107.317 73.6488 107.374 73.332 107.367 73.0134C107.36 72.6947 107.29 72.3807 107.16 72.0895C107.03 71.7983 106.844 71.5358 106.612 71.3173C105.145 69.926 103.303 68.9926 101.314 68.6312C99.3238 68.2698 97.2719 68.4961 95.4088 69.2824C93.5456 70.0686 91.9519 71.3808 90.8227 73.0584C89.6934 74.736 89.0775 76.7063 89.0502 78.7284C89.0775 80.7505 89.6934 82.7209 90.8227 84.3985C91.9519 86.0761 93.5456 87.3882 95.4088 88.1745C97.2719 88.9608 99.3238 89.187 101.314 88.8256C103.303 88.4642 105.145 87.5309 106.612 86.1396C106.844 85.9211 107.03 85.6586 107.16 85.3674C107.29 85.0762 107.36 84.7622 107.367 84.4435C107.374 84.1249 107.317 83.808 107.201 83.5115C107.084 83.2149 106.909 82.9445 106.687 82.7161C106.235 82.2525 105.619 81.985 104.972 81.9713C104.324 81.9576 103.697 82.1987 103.226 82.6427C102.181 83.6293 100.792 84.1698 99.3548 84.1498C97.9175 84.1298 96.5445 83.5507 95.527 82.5354C95.0263 82.0359 94.629 81.4425 94.358 80.7893C94.0869 80.136 93.9474 79.4357 93.9474 78.7284C93.9474 78.0212 94.0869 77.3209 94.358 76.6676C94.629 76.0143 95.0263 75.421 95.527 74.9214C96.5445 73.9062 97.9175 73.3271 99.3548 73.3071C100.792 73.2871 102.181 73.8276 103.226 74.8142C103.697 75.2583 104.324 75.4994 104.972 75.4855C105.619 75.4717 106.235 75.204 106.687 74.7401V74.7408ZM119.749 68.4655C117.012 68.453 114.381 69.5266 112.435 71.4509C110.489 73.3751 109.385 75.9929 109.366 78.7298C109.366 81.4835 110.46 84.1244 112.407 86.0715C114.354 88.0187 116.995 89.1126 119.749 89.1126C122.502 89.1126 125.143 88.0187 127.09 86.0715C129.038 84.1244 130.131 81.4835 130.131 78.7298C130.113 75.9929 129.009 73.3751 127.062 71.4509C125.116 69.5266 122.486 68.453 119.749 68.4655ZM119.749 84.151C118.679 84.1389 117.637 83.8105 116.753 83.2074C115.87 82.6043 115.185 81.7533 114.784 80.7615C114.383 79.7698 114.284 78.6816 114.5 77.6339C114.716 76.5862 115.238 75.6259 115.999 74.8738C116.759 74.1218 117.725 73.6115 118.775 73.4073C119.826 73.2032 120.913 73.3142 121.9 73.7264C122.887 74.1386 123.73 74.8336 124.323 75.7239C124.916 76.6143 125.232 77.6601 125.232 78.7298C125.228 79.4459 125.083 80.1541 124.805 80.814C124.527 81.4739 124.122 82.0727 123.613 82.5761C123.104 83.0795 122.501 83.4777 121.838 83.7479C121.175 84.0181 120.465 84.1551 119.749 84.151ZM144.348 68.4655C141.251 68.4526 138.276 69.6681 136.074 71.8454C133.872 74.0228 132.623 76.9844 132.602 80.081C132.599 81.6085 132.902 83.121 133.492 84.5299C134.083 85.9387 134.948 87.2155 136.038 88.2854C136.5 88.7391 137.121 88.9933 137.769 88.9933C138.416 88.9933 139.038 88.7391 139.499 88.2854C139.726 88.0618 139.907 87.7953 140.03 87.5013C140.153 87.2073 140.217 86.8917 140.217 86.5729C140.217 86.2542 140.153 85.9386 140.03 85.6446C139.907 85.3506 139.726 85.0841 139.499 84.8605C138.864 84.2356 138.359 83.4906 138.015 82.6688C137.671 81.847 137.493 80.9648 137.493 80.0737C137.493 79.1826 137.671 78.3005 138.015 77.4787C138.359 76.6568 138.864 75.9118 139.499 75.2869C140.791 74.0165 142.53 73.3045 144.341 73.3045C146.153 73.3045 147.892 74.0165 149.183 75.2869C149.818 75.9118 150.323 76.6568 150.667 77.4787C151.011 78.3005 151.189 79.1826 151.189 80.0737C151.189 80.9648 151.011 81.847 150.667 82.6688C150.323 83.4906 149.818 84.2356 149.183 84.8605C148.956 85.084 148.775 85.3505 148.652 85.6444C148.529 85.9384 148.465 86.2539 148.465 86.5726C148.465 86.8913 148.529 87.2068 148.652 87.5008C148.775 87.7947 148.956 88.0612 149.183 88.2847C149.645 88.7384 150.266 88.9926 150.913 88.9926C151.561 88.9926 152.182 88.7384 152.644 88.2847C153.737 87.2162 154.605 85.9401 155.198 84.5313C155.791 83.1225 156.096 81.6094 156.096 80.081C156.074 76.9842 154.825 74.0224 152.623 71.8449C150.421 69.6675 147.445 68.4522 144.348 68.4655ZM66.4545 71.8453C68.6566 69.6679 71.6322 68.4525 74.7289 68.4656C77.8257 68.4525 80.8012 69.6679 83.0033 71.8453C85.2053 74.0227 86.4541 76.9844 86.4759 80.0811C86.476 81.6094 86.1706 83.1223 85.5779 84.531C84.9851 85.9397 84.1168 87.2157 83.024 88.2841C82.5623 88.7378 81.9409 88.992 81.2936 88.992C80.6462 88.992 80.0248 88.7378 79.5631 88.2841C79.3359 88.0605 79.1555 87.794 79.0323 87.5C78.9091 87.206 78.8457 86.8904 78.8457 86.5717C78.8457 86.2529 78.9091 85.9373 79.0323 85.6433C79.1555 85.3493 79.3359 85.0828 79.5631 84.8592C80.1985 84.2344 80.7031 83.4893 81.0476 82.6674C81.3921 81.8455 81.5695 80.9633 81.5695 80.0721C81.5695 79.1809 81.3921 78.2987 81.0476 77.4768C80.7031 76.6549 80.1985 75.9098 79.5631 75.285C78.2716 74.0145 76.5326 73.3024 74.721 73.3024C72.9093 73.3024 71.1703 74.0145 69.8788 75.285C69.2434 75.9098 68.7388 76.6549 68.3943 77.4768C68.0498 78.2987 67.8724 79.1809 67.8724 80.0721C67.8724 80.9633 68.0498 81.8455 68.3943 82.6674C68.7388 83.4893 69.2434 84.2344 69.8788 84.8592C70.106 85.0828 70.2864 85.3493 70.4096 85.6433C70.5328 85.9373 70.5962 86.2529 70.5962 86.5717C70.5962 86.8904 70.5328 87.206 70.4096 87.5C70.2864 87.794 70.106 88.0605 69.8788 88.2841C69.4171 88.7378 68.7957 88.992 68.1483 88.992C67.501 88.992 66.8796 88.7378 66.4179 88.2841C65.328 87.2144 64.4626 85.9377 63.8726 84.5291C63.2826 83.1205 62.9798 81.6083 62.9819 80.0811C63.0037 76.9844 64.2525 74.0227 66.4545 71.8453ZM101.88 78.7158C101.887 80.0523 100.797 81.1417 99.4454 81.1492C98.0937 81.1567 96.9919 80.0793 96.9845 78.7429C96.9771 77.4065 98.0669 76.317 99.4186 76.3095C100.77 76.3021 101.872 77.3794 101.88 78.7158Z" fill="white"/>
<path d="M169.736 76.8766H164.936V88.656H167.035V84.4332H169.736C172.352 84.4332 173.47 82.5697 173.47 80.6549C173.47 78.7743 172.352 76.8766 169.736 76.8766ZM169.633 82.5526H167.035V78.7401H169.685C170.889 78.7401 171.371 79.7317 171.371 80.6549C171.371 81.6123 170.872 82.5526 169.633 82.5526Z" fill="white"/>
<path d="M182.654 84.5871C182.654 82.091 180.847 80.501 178.541 80.501C176.253 80.501 174.326 82.1081 174.326 84.6554C174.326 87.1515 176.15 88.827 178.559 88.827C180.021 88.827 181.432 88.2115 182.172 87.049L180.847 86.0403C180.365 86.6899 179.539 87.0319 178.662 87.0319C177.475 87.0319 176.614 86.4677 176.391 85.3564H182.602C182.636 85.0658 182.654 84.8093 182.654 84.5871ZM176.391 83.9716C176.632 82.7577 177.492 82.2448 178.576 82.2448C179.694 82.2448 180.537 82.8774 180.658 83.9716H176.391Z" fill="white"/>
<path d="M185.605 79.0649C186.328 79.0649 186.913 78.5349 186.913 77.8511C186.913 77.1501 186.328 76.6372 185.605 76.6372C184.9 76.6372 184.315 77.1501 184.315 77.8511C184.315 78.5349 184.9 79.0649 185.605 79.0649ZM182.302 92.554H183.351C185.605 92.554 186.603 91.1692 186.603 88.9467V80.672H184.607V88.9467C184.624 89.8528 184.332 90.7076 183.282 90.7076H182.302V92.554Z" fill="white"/>
<path d="M192.741 88.827C195.029 88.827 197.025 87.1686 197.025 84.6384C197.025 82.1081 195.029 80.501 192.741 80.501C190.452 80.501 188.474 82.1081 188.474 84.6384C188.474 87.1686 190.452 88.827 192.741 88.827ZM192.741 86.9806C191.502 86.9806 190.487 86.0403 190.487 84.6384C190.487 83.2706 191.502 82.3474 192.741 82.3474C193.979 82.3474 195.012 83.2706 195.012 84.6384C195.012 86.0403 193.979 86.9806 192.741 86.9806Z" fill="white"/>
<path d="M203.173 80.672H201.47V77.7314H199.474V80.672H198.029V82.2619H199.474V88.656H201.47V82.2619H203.173V80.672Z" fill="white"/>
<path d="M210.691 80.672V81.732C210.14 80.8942 209.022 80.501 208.007 80.501C205.89 80.501 204.067 82.091 204.067 84.6554C204.067 87.2028 205.908 88.827 208.024 88.827C209.005 88.827 210.14 88.4338 210.691 87.5789V88.656H212.687V80.672L210.691 80.672ZM208.334 86.9635C207.095 86.9635 206.08 85.9719 206.08 84.6384C206.08 83.3048 207.095 82.3474 208.334 82.3474C209.486 82.3474 210.656 83.2364 210.656 84.6384C210.656 86.0403 209.555 86.9635 208.334 86.9635Z" fill="white"/>
<path d="M310.742 208.898C309.399 208.419 307.978 208.178 306.548 208.188C301.924 208.188 298.657 210.468 298.634 213.742C298.605 216.147 300.955 217.502 302.733 218.306C304.557 219.132 305.167 219.653 305.161 220.391C305.149 221.515 303.704 222.024 302.36 222.024C300.513 222.024 299.504 221.772 297.952 221.141L297.377 220.878L296.721 224.647C297.845 225.105 299.871 225.498 301.964 225.532C306.881 225.532 310.095 223.266 310.132 219.783C310.173 217.862 308.901 216.41 306.224 215.21C304.597 214.432 303.588 213.912 303.588 213.122C303.588 212.423 304.453 211.676 306.259 211.676C307.461 211.648 308.656 211.869 309.765 212.324L310.199 212.514L310.855 208.872L310.742 208.898ZM322.743 208.493H319.13C318.006 208.493 317.159 208.796 316.668 209.888L309.719 225.298H314.636L315.618 222.771L321.619 222.776C321.76 223.368 322.194 225.298 322.194 225.298H326.53L322.743 208.493ZM291.983 208.352H296.669L293.738 225.165H289.058L291.983 208.346V208.352ZM280.089 217.618L280.575 219.953L285.153 208.493H290.116L282.743 225.275H277.792L273.745 211.065C273.68 210.831 273.526 210.63 273.314 210.502C271.856 209.765 270.311 209.205 268.713 208.836L268.776 208.482H276.318C277.341 208.522 278.164 208.836 278.439 209.905L280.087 217.627V217.618H280.089ZM316.962 219.333L318.83 214.63C318.806 214.681 319.214 213.66 319.451 213.029L319.772 214.48L320.856 219.33H316.959V219.333H316.962Z" fill="white"/>
<path d="M63.4097 221.006C63.4097 220.22 63.5909 219.515 63.9532 218.89C64.3233 218.266 64.8205 217.78 65.4449 217.433C66.077 217.079 66.767 216.901 67.5147 216.901C68.3704 216.901 69.1297 217.113 69.7927 217.537C70.4634 217.954 70.949 218.547 71.2497 219.318H69.6655C69.4574 218.894 69.1683 218.578 68.7983 218.37C68.4282 218.162 68.0004 218.058 67.5147 218.058C66.9828 218.058 66.5087 218.177 66.0924 218.416C65.6762 218.655 65.3485 218.998 65.1096 219.445C64.8783 219.892 64.7627 220.413 64.7627 221.006C64.7627 221.6 64.8783 222.12 65.1096 222.567C65.3485 223.014 65.6762 223.361 66.0924 223.608C66.5087 223.847 66.9828 223.966 67.5147 223.966C68.0004 223.966 68.4282 223.862 68.7983 223.654C69.1683 223.446 69.4574 223.13 69.6655 222.706H71.2497C70.949 223.477 70.4634 224.071 69.7927 224.487C69.1297 224.903 68.3704 225.111 67.5147 225.111C66.7593 225.111 66.0693 224.938 65.4449 224.591C64.8205 224.236 64.3233 223.747 63.9532 223.122C63.5909 222.498 63.4097 221.793 63.4097 221.006ZM77.6377 223.4H74.2728L73.6946 225.042H72.3186L75.1978 216.994H76.7242L79.6035 225.042H78.2159L77.6377 223.4ZM77.2677 222.324L75.961 218.59L74.6428 222.324H77.2677ZM85.0298 225.042L83.1796 221.827H82.1736V225.042H80.8554V217.005H83.6306C84.2473 217.005 84.7677 217.113 85.1916 217.329C85.6233 217.545 85.9433 217.834 86.1514 218.196C86.3672 218.559 86.4752 218.963 86.4752 219.411C86.4752 219.935 86.321 220.413 86.0126 220.844C85.712 221.268 85.2456 221.557 84.6135 221.712L86.6024 225.042H85.0298ZM82.1736 220.775H83.6306C84.124 220.775 84.494 220.652 84.7407 220.405C84.9951 220.158 85.1223 219.827 85.1223 219.411C85.1223 218.994 84.9989 218.67 84.7522 218.439C84.5055 218.2 84.1317 218.081 83.6306 218.081H82.1736V220.775ZM91.8271 225.123C91.0793 225.123 90.3894 224.949 89.7573 224.602C89.1328 224.248 88.6356 223.758 88.2656 223.134C87.9033 222.502 87.7221 221.793 87.7221 221.006C87.7221 220.22 87.9033 219.515 88.2656 218.89C88.6356 218.266 89.1328 217.78 89.7573 217.433C90.3894 217.079 91.0793 216.901 91.8271 216.901C92.5826 216.901 93.2725 217.079 93.8969 217.433C94.5291 217.78 95.0263 218.266 95.3886 218.89C95.7509 219.515 95.9321 220.22 95.9321 221.006C95.9321 221.793 95.7509 222.502 95.3886 223.134C95.0263 223.758 94.5291 224.248 93.8969 224.602C93.2725 224.949 92.5826 225.123 91.8271 225.123ZM91.8271 223.978C92.359 223.978 92.8331 223.859 93.2494 223.62C93.6657 223.373 93.9894 223.026 94.2207 222.579C94.4597 222.124 94.5792 221.6 94.5792 221.006C94.5792 220.413 94.4597 219.892 94.2207 219.445C93.9894 218.998 93.6657 218.655 93.2494 218.416C92.8331 218.177 92.359 218.058 91.8271 218.058C91.2952 218.058 90.8211 218.177 90.4048 218.416C89.9885 218.655 89.6609 218.998 89.4219 219.445C89.1907 219.892 89.075 220.413 89.075 221.006C89.075 221.6 89.1907 222.124 89.4219 222.579C89.6609 223.026 89.9885 223.373 90.4048 223.62C90.8211 223.859 91.2952 223.978 91.8271 223.978ZM98.5475 223.978H101.265V225.042H97.2293V217.005H98.5475V223.978ZM103.685 217.005V225.042H102.367V217.005H103.685ZM112.019 225.042H110.701L106.734 219.04V225.042H105.416V216.994H106.734L110.701 222.984V216.994H112.019V225.042ZM115.068 218.069V220.428H117.843V221.503H115.068V223.966H118.19V225.042H113.75V216.994H118.19V218.069H115.068ZM68.6942 240.4H65.3293L64.7511 242.042H63.3751L66.2543 233.994H67.7807L70.66 242.042H69.2724L68.6942 240.4ZM68.3242 239.324L67.0175 235.59L65.6993 239.324H68.3242ZM76.0862 242.042L74.2361 238.827H73.2301V242.042H71.9119V234.005H74.6871C75.3038 234.005 75.8241 234.113 76.2481 234.329C76.6798 234.545 76.9997 234.834 77.2079 235.196C77.4237 235.559 77.5317 235.963 77.5317 236.411C77.5317 236.935 77.3775 237.413 77.0691 237.844C76.7685 238.268 76.3021 238.557 75.67 238.712L77.6588 242.042H76.0862ZM73.2301 237.775H74.6871C75.1804 237.775 75.5505 237.652 75.7972 237.405C76.0515 237.158 76.1787 236.827 76.1787 236.411C76.1787 235.994 76.0554 235.67 75.8087 235.439C75.562 235.2 75.1881 235.081 74.6871 235.081H73.2301V237.775ZM84.063 240.4H80.6981L80.1199 242.042H78.7439L81.6232 233.994H83.1495L86.0288 242.042H84.6412L84.063 240.4ZM83.693 239.324L82.3864 235.59L81.0681 239.324H83.693ZM88.5874 234.005V239.128C88.5874 239.737 88.7454 240.196 89.0615 240.504C89.3852 240.812 89.8324 240.966 90.4028 240.966C90.981 240.966 91.4281 240.812 91.7442 240.504C92.0679 240.196 92.2298 239.737 92.2298 239.128V234.005H93.548V239.105C93.548 239.76 93.4054 240.315 93.1202 240.77C92.835 241.225 92.4534 241.564 91.9754 241.787C91.4975 242.011 90.9694 242.123 90.3913 242.123C89.8131 242.123 89.285 242.011 88.8071 241.787C88.3368 241.564 87.963 241.225 87.6854 240.77C87.4079 240.315 87.2692 239.76 87.2692 239.105V234.005H88.5874ZM91.5938 232.282L89.0383 233.543V232.571L91.5938 231.161V232.282ZM99.6469 234.005V239.799C99.6469 240.516 99.4272 241.082 98.9878 241.498C98.5561 241.915 97.9856 242.123 97.2764 242.123C96.5672 242.123 95.9929 241.915 95.5535 241.498C95.1218 241.082 94.9059 240.516 94.9059 239.799H96.2357C96.2434 240.153 96.3321 240.435 96.5017 240.643C96.679 240.851 96.9372 240.955 97.2764 240.955C97.6156 240.955 97.8739 240.851 98.0512 240.643C98.2285 240.427 98.3171 240.145 98.3171 239.799V234.005H99.6469ZM105.457 242.123C104.709 242.123 104.019 241.949 103.387 241.602C102.763 241.248 102.265 240.758 101.895 240.134C101.533 239.502 101.352 238.793 101.352 238.006C101.352 237.22 101.533 236.515 101.895 235.89C102.265 235.266 102.763 234.78 103.387 234.433C104.019 234.079 104.709 233.901 105.457 233.901C106.212 233.901 106.902 234.079 107.527 234.433C108.159 234.78 108.656 235.266 109.018 235.89C109.381 236.515 109.562 237.22 109.562 238.006C109.562 238.793 109.381 239.502 109.018 240.134C108.656 240.758 108.159 241.248 107.527 241.602C106.902 241.949 106.212 242.123 105.457 242.123ZM105.457 240.978C105.989 240.978 106.463 240.859 106.879 240.62C107.296 240.373 107.619 240.026 107.851 239.579C108.09 239.124 108.209 238.6 108.209 238.006C108.209 237.413 108.09 236.892 107.851 236.445C107.619 235.998 107.296 235.655 106.879 235.416C106.463 235.177 105.989 235.058 105.457 235.058C104.925 235.058 104.451 235.177 104.035 235.416C103.618 235.655 103.291 235.998 103.052 236.445C102.82 236.892 102.705 237.413 102.705 238.006C102.705 238.6 102.82 239.124 103.052 239.579C103.291 240.026 103.618 240.373 104.035 240.62C104.451 240.859 104.925 240.978 105.457 240.978Z" fill="white"/>
</g>
<path opacity="0.3" d="M319.825 0.400756C301.336 0.316214 283.568 7.56052 270.42 20.5445C257.272 33.5284 249.816 51.1917 249.689 69.6595C249.689 88.2399 257.078 106.059 270.231 119.198C283.384 132.336 301.223 139.717 319.825 139.717C338.426 139.717 356.265 132.336 369.418 119.198C382.571 106.059 389.96 88.2399 389.96 69.6595C389.833 51.1917 382.377 33.5284 369.229 20.5445C356.08 7.56052 338.313 0.316214 319.825 0.400756ZM319.825 106.239C312.599 106.157 305.559 103.942 299.591 99.872C293.623 95.8023 288.993 90.0602 286.285 83.3682C283.577 76.6763 282.911 69.3337 284.371 62.2646C285.831 55.1954 289.353 48.7157 294.491 43.6411C299.63 38.5664 306.157 35.1235 313.25 33.7458C320.343 32.3681 327.686 33.1171 334.354 35.8986C341.022 38.6801 346.717 43.3697 350.723 49.3771C354.729 55.3846 356.866 62.4415 356.865 69.6595C356.838 74.4908 355.858 79.2694 353.981 83.7224C352.105 88.1753 349.369 92.2155 345.929 95.6122C342.49 99.009 338.414 101.696 333.935 103.519C329.456 105.342 324.661 106.267 319.825 106.239Z" fill="url(#paint7_linear_4298_1488)"/>
<defs>
<filter id="filter0_f_4298_1488" x="0.166077" y="34.2172" width="352.285" height="259.995" filterUnits="userSpaceOnUse" color-interpolation-filters="sRGB">
<feFlood flood-opacity="0" result="BackgroundImageFix"/>
<feBlend mode="normal" in="SourceGraphic" in2="BackgroundImageFix" result="shape"/>
<feGaussianBlur stdDeviation="19.0845" result="effect1_foregroundBlur_4298_1488"/>
</filter>
<linearGradient id="paint0_linear_4298_1488" x1="166.632" y1="292.55" x2="62.8139" y2="185.277" gradientUnits="userSpaceOnUse">
<stop stop-color="white"/>
<stop offset="1" stop-color="white" stop-opacity="0"/>
</linearGradient>
<linearGradient id="paint1_linear_4298_1488" x1="71.9862" y1="-19.8423" x2="96.9045" y2="236.262" gradientUnits="userSpaceOnUse">
<stop stop-color="#0E9CC0"/>
<stop offset="1" stop-color="#0E9CC0" stop-opacity="0"/>
</linearGradient>
<linearGradient id="paint2_linear_4298_1488" x1="-76.59" y1="89.0056" x2="367.042" y2="323.245" gradientUnits="userSpaceOnUse">
<stop stop-color="#00A5F0"/>
<stop offset="1" stop-color="#00D7D7"/>
</linearGradient>
<linearGradient id="paint3_linear_4298_1488" x1="166.578" y1="292.586" x2="62.7597" y2="185.312" gradientUnits="userSpaceOnUse">
<stop stop-color="white"/>
<stop offset="1" stop-color="white" stop-opacity="0"/>
</linearGradient>
<linearGradient id="paint4_linear_4298_1488" x1="282.904" y1="-53.5896" x2="357.93" y2="128.3" gradientUnits="userSpaceOnUse">
<stop stop-color="white"/>
<stop offset="1" stop-color="white" stop-opacity="0"/>
</linearGradient>
<linearGradient id="paint5_linear_4298_1488" x1="99.5389" y1="129.195" x2="113.438" y2="169.412" gradientUnits="userSpaceOnUse">
<stop stop-color="#DCD59E"/>
<stop offset="1" stop-color="#CBBB82"/>
</linearGradient>
<linearGradient id="paint6_linear_4298_1488" x1="82.0534" y1="130.854" x2="99.5389" y2="158.338" gradientUnits="userSpaceOnUse">
<stop stop-color="#FBF3C0"/>
<stop offset="1" stop-color="#CCBC84"/>
</linearGradient>
<linearGradient id="paint7_linear_4298_1488" x1="275.52" y1="-12.982" x2="286.484" y2="104.698" gradientUnits="userSpaceOnUse">
<stop stop-color="white"/>
<stop offset="1" stop-color="white" stop-opacity="0"/>
</linearGradient>
<clipPath id="clip0_4298_1488">
<rect x="47.5641" y="52.0824" width="293.901" height="187.904" rx="5.78167" fill="white"/>
</clipPath>
</defs>
</svg>
